<?xml version="1.0" encoding="UTF-8" standalone="no"?>
<svg
   class="svglite"
   width="547.76837pt"
   height="309.86905pt"
   viewBox="0 0 547.76837 309.86905"
   version="1.1"
   id="svg48905"
   sodipodi:docname="homeownership.svg"
   inkscape:export-filename="C:\Users\dzulf\Documents\projects\jakpost-graphics\2021\2021-06-28-homeownership-slides\result\homeownership.png"
   inkscape:export-xdpi="165.80255"
   inkscape:export-ydpi="165.80255"
   inkscape:version="1.1.2 (b8e25be833, 2022-02-05)"
   xmlns:inkscape="http://www.inkscape.org/namespaces/inkscape"
   xmlns:sodipodi="http://sodipodi.sourceforge.net/DTD/sodipodi-0.dtd"
   xmlns="http://www.w3.org/2000/svg"
   xmlns:svg="http://www.w3.org/2000/svg">
  <sodipodi:namedview
     id="namedview48907"
     pagecolor="#ffffff"
     bordercolor="#666666"
     borderopacity="1.0"
     inkscape:pageshadow="2"
     inkscape:pageopacity="0.0"
     inkscape:pagecheckerboard="0"
     inkscape:document-units="pt"
     showgrid="false"
     inkscape:zoom="1.7096354"
     inkscape:cx="516.48439"
     inkscape:cy="238.06245"
     inkscape:window-width="1920"
     inkscape:window-height="1046"
     inkscape:window-x="-11"
     inkscape:window-y="-11"
     inkscape:window-maximized="1"
     inkscape:current-layer="svg48905" />
  <defs
     id="defs48622">
    <style
       type="text/css"
       id="style48620"><![CDATA[
    .svglite line, .svglite polyline, .svglite polygon, .svglite path, .svglite rect, .svglite circle {
      fill: none;
      stroke: #000000;
      stroke-linecap: round;
      stroke-linejoin: round;
      stroke-miterlimit: 10.00;
    }
  ]]></style>
  </defs>
  <rect
     width="100%"
     height="100%"
     style="fill:#ffffff;stroke:none"
     id="rect48624"
     x="-14.641602"
     y="-6.9176183" />
  <defs
     id="defs48629">
    <clipPath
       id="cpMC4wMHw1NzYuMDB8MC4wMHwzMjQuMDA=">
      <rect
         x="0"
         y="0"
         width="576"
         height="324"
         id="rect48626" />
    </clipPath>
  </defs>
  <g
     clip-path="url(#cpMC4wMHw1NzYuMDB8MC4wMHwzMjQuMDA=)"
     id="g48633"
     transform="translate(-14.641601,-6.9176184)">
    <rect
       x="0"
       y="0"
       width="576"
       height="324"
       style="fill:#ffffff;stroke:none;stroke-width:1.07"
       id="rect48631" />
  </g>
  <defs
     id="defs48638">
    <clipPath
       id="cpNy4wOXwzMjQuNzJ8NDYuNTh8Mjg3LjUw">
      <rect
         x="7.0900002"
         y="46.580002"
         width="317.63"
         height="240.92"
         id="rect48635" />
    </clipPath>
  </defs>
  <g
     clip-path="url(#cpNy4wOXwzMjQuNzJ8NDYuNTh8Mjg3LjUw)"
     id="g48642"
     transform="translate(-14.641601,-6.9176184)">
    <rect
       x="7.0900002"
       y="46.580002"
       width="317.63"
       height="240.92"
       style="fill:#ffffff;stroke:none;stroke-width:1.07"
       id="rect48640" />
  </g>
  <g
     clip-path="url(#cpMC4wMHw1NzYuMDB8MC4wMHwzMjQuMDA=)"
     id="g48644"
     transform="translate(-14.641601,-6.9176184)" />
  <defs
     id="defs48649">
    <clipPath
       id="cpMTQuMTd8Mjk0LjM0fDkwLjMzfDI2NS4yOA==">
      <rect
         x="14.17"
         y="90.330002"
         width="280.16"
         height="174.95"
         id="rect48646" />
    </clipPath>
  </defs>
  <g
     clip-path="url(#cpMTQuMTd8Mjk0LjM0fDkwLjMzfDI2NS4yOA==)"
     id="g48687"
     transform="translate(-14.641601,-6.9176184)">
    <rect
       x="14.641601"
       y="90.330002"
       width="280.16"
       height="174.95"
       style="fill:#ffffff;stroke:none;stroke-width:1.07"
       id="rect48651" />
    <polyline
       points="14.17,257.33 294.34,257.33 "
       style="stroke:#e0e0e0;stroke-width:1.16;stroke-linecap:butt"
       id="polyline48653" />
    <polyline
       points="14.17,217.57 294.34,217.57 "
       style="stroke:#e0e0e0;stroke-width:1.16;stroke-linecap:butt"
       id="polyline48655" />
    <polyline
       points="14.17,177.81 294.34,177.81 "
       style="stroke:#e0e0e0;stroke-width:1.16;stroke-linecap:butt"
       id="polyline48657" />
    <polyline
       points="14.17,138.04 294.34,138.04 "
       style="stroke:#e0e0e0;stroke-width:1.16;stroke-linecap:butt"
       id="polyline48659" />
    <polyline
       points="14.17,98.28 294.34,98.28 "
       style="stroke:#e0e0e0;stroke-width:1.16;stroke-linecap:butt"
       id="polyline48661" />
    <line
       x1="14.17"
       y1="138.03999"
       x2="294.34"
       y2="138.03999"
       style="stroke-width:1.16;stroke-linecap:butt"
       id="line48663" />
    <path
       style="color:#000000;fill:#c05100;stroke:#ffffff;stroke-width:0.75;stroke-linejoin:round;stroke-miterlimit:10;stroke-dasharray:none;stroke-opacity:1"
       d="m 27.095703,136.55078 -0.371094,2.97852 11.638672,1.44726 11.761719,11.19922 a 1.50015,1.50015 0 0 0 1.179687,0.40625 l 12.13086,-1.17969 a 1.50015,1.50015 0 0 0 0.830078,-0.35351 l 11.179687,-9.58399 11.158204,9.08789 a 1.50015,1.50015 0 0 0 0.820312,0.33204 l 11.912109,1.00195 11.802733,4.63086 12.00781,7.36133 a 1.50015,1.50015 0 0 0 1.58399,-0.01 l 11.72851,-7.40625 11.04297,0.57422 11.7168,12.67187 a 1.50015,1.50015 0 0 0 0.82031,0.45508 l 12.13086,2.3086 a 1.50015,1.50015 0 0 0 1.4082,-0.48438 l 11.21875,-12.81055 11.00977,8.16797 a 1.50015,1.50015 0 0 0 0.22461,0.13672 l 12.13086,6.04102 a 1.50015,1.50015 0 0 0 1.90625,-0.4961 l 11.31055,-16.52539 10.88671,6.90039 12.10743,8.27539 a 1.50015,1.50015 0 0 0 1.1914,0.22266 l 12.11914,-2.85742 11.70508,-2.57031 11.73828,3.90039 0.94532,-2.84571 -12.12891,-4.03125 a 1.50015,1.50015 0 0 0 -0.79492,-0.041 l -12.11914,2.66015 a 1.50015,1.50015 0 0 0 -0.0234,0.004 l -11.48633,2.70898 -11.58398,-7.91601 a 1.50015,1.50015 0 0 0 -0.043,-0.0293 l -12.12891,-7.68945 a 1.50015,1.50015 0 0 0 -2.04101,0.41992 l -11.39258,16.64258 -10.84375,-5.40039 -12.01367,-8.91016 a 1.50015,1.50015 0 0 0 -2.02149,0.2168 l -11.56445,13.20312 -10.80078,-2.05664 -11.79492,-12.75781 a 1.50015,1.50015 0 0 0 -1.02344,-0.47851 l -12.12891,-0.63086 a 1.50015,1.50015 0 0 0 -0.8789,0.23046 l -11.3418,7.16211 -11.32422,-6.94336 a 1.50015,1.50015 0 0 0 -0.23633,-0.11718 l -12.1289,-4.75977 a 1.50015,1.50015 0 0 0 -0.421879,-0.0976 l -11.667969,-0.98243 -11.771485,-9.58593 a 1.50015,1.50015 0 0 0 -1.923828,0.0234 l -11.769531,10.0918 -10.976562,1.06836 -11.623047,-11.06836 a 1.50015,1.50015 0 0 0 -0.84961,-0.40234 z"
       id="polyline48665" />
    <path
       style="color:#000000;fill:#8ba2b4;stroke:#ffffff;stroke-width:0.75;stroke-linejoin:round;stroke-miterlimit:10;stroke-dasharray:none;stroke-opacity:1"
       d="m 281.01172,124.05078 -11.64063,4.96094 -11.60937,-3.31445 a 1.50015,1.50015 0 0 0 -1.04492,0.082 l -11.42969,5.31445 -11.45703,-6.48828 a 1.50015,1.50015 0 0 0 -0.79883,-0.19531 l -12.12891,0.4707 a 1.50015,1.50015 0 0 0 -0.83203,0.29102 l -11.79492,8.68359 -11.71484,1.0918 a 1.50015,1.50015 0 0 0 -0.18946,0.0293 l -12.08203,2.72071 -12.08984,2.05468 a 1.50015,1.50015 0 0 0 -0.0644,0.0117 l -12.05079,2.59375 -12.05078,1.25977 a 1.50015,1.50015 0 0 0 -0.17578,0.0293 l -12.01367,2.73438 -11.59766,0.74609 -11.75195,-6.03125 a 1.50015,1.50015 0 0 0 -0.7207,-0.16601 l -12.130862,0.30078 a 1.50015,1.50015 0 0 0 -0.0957,0.006 l -11.857422,1.05469 -11.867187,-3.30665 a 1.50015,1.50015 0 0 0 -0.5625,-0.0449 l -12.128907,1.29883 a 1.50015,1.50015 0 0 0 -0.458984,0.125 l -11.125,5.03516 -11.384766,-12.81446 A 1.50015,1.50015 0 0 0 38.521537,132.172 l -12.128906,4.46094 1.035156,2.81446 11.169922,-4.10743 11.441406,12.87696 a 1.50015,1.50015 0 0 0 1.740235,0.36914 l 11.910156,-5.39063 11.605469,-1.24414 11.851562,3.30469 a 1.50015,1.50015 0 0 0 0.53711,0.0488 l 12.082031,-1.07617 11.699212,-0.28907 11.78125,6.04492 a 1.50015,1.50015 0 0 0 0.7793,0.16211 l 12.13086,-0.77929 a 1.50015,1.50015 0 0 0 0.23633,-0.0352 l 12.04297,-2.74023 12.04101,-1.25977 a 1.50015,1.50015 0 0 0 0.15821,-0.0254 l 12.0996,-2.60352 12.09766,-2.05468 a 1.50015,1.50015 0 0 0 0.0781,-0.0156 l 12.02539,-2.70898 12.0332,-1.1211 a 1.50015,1.50015 0 0 0 0.75,-0.28515 l 11.75977,-8.65625 11.24414,-0.43555 11.75781,6.66016 a 1.50015,1.50015 0 0 0 1.37109,0.0547 l 11.625,-5.40429 11.58203,3.30664 a 1.50015,1.50015 0 0 0 1,-0.0625 l 12.12891,-5.16992 z"
       id="polyline48673" />
    <path
       style="color:#000000;fill:#00517c;stroke:#ffffff;stroke-width:0.75;stroke-linejoin:round;stroke-miterlimit:10;stroke-dasharray:none;stroke-opacity:1"
       d="m 221.3457,115.08008 a 1.50015,1.50015 0 0 0 -1.46484,0.4082 l -11.60547,12.02735 -11.38281,-1.47266 a 1.50015,1.50015 0 0 0 -0.41016,0.004 l -12.12109,1.77929 a 1.50015,1.50015 0 0 0 -0.21094,0.0469 l -12.08594,3.61718 -12.02343,2.81446 -12.06836,1.76172 a 1.50015,1.50015 0 0 0 -0.36133,0.0996 l -11.79297,4.93945 -11.62109,-0.96875 -11.80664,-3.3125 -11.97266,-6.75977 a 1.50015,1.50015 0 0 0 -1.097658,-0.15039 l -11.578125,2.85352 -11.626953,-6.07617 a 1.50015,1.50015 0 0 0 -0.550781,-0.16407 l -12.128906,-1.17968 a 1.50015,1.50015 0 0 0 -0.376953,0.01 l -11.962891,1.875 -11.951172,-0.83789 a 1.50015,1.50015 0 0 0 -1.066406,0.3457 l -12.130859,10.14844 1.925781,2.30078 11.666015,-9.76172 11.515625,0.8086 a 1.50015,1.50015 0 0 0 0.337891,-0.0137 l 11.941406,-1.8711 11.650391,1.13281 11.871094,6.20508 a 1.50015,1.50015 0 0 0 1.052734,0.12696 l 11.552734,-2.84766 11.611333,6.55664 a 1.50015,1.50015 0 0 0 0.33203,0.13867 l 12.12109,3.40039 a 1.50015,1.50015 0 0 0 0.2793,0.0508 l 12.13086,1.00977 a 1.50015,1.50015 0 0 0 0.70312,-0.11133 l 11.95508,-5.00586 11.94336,-1.74414 a 1.50015,1.50015 0 0 0 0.125,-0.0234 l 12.12891,-2.83984 a 1.50015,1.50015 0 0 0 0.0898,-0.0234 l 12.02539,-3.59961 11.80664,-1.73242 11.92383,1.54297 a 1.50015,1.50015 0 0 0 1.27344,-0.44727 l 11.51757,-11.93554 11.00586,2.92187 11.90235,8.69336 a 1.50015,1.50015 0 0 0 1.59961,0.10742 l 11.69336,-6.35351 11.6289,1.66016 a 1.50015,1.50015 0 0 0 0.47656,-0.008 l 12.12891,-2.16992 -0.52734,-2.95312 -11.89258,2.12695 -11.88086,-1.69531 a 1.50015,1.50015 0 0 0 -0.92773,0.16601 l -11.29688,6.13672 -11.36328,-8.29883 a 1.50015,1.50015 0 0 0 -0.5,-0.23828 z"
       id="polyline48667" />
    <path
       style="color:#000000;fill:#fba23c;stroke:#ffffff;stroke-width:0.75;stroke-linejoin:round;stroke-miterlimit:10;stroke-dasharray:none;stroke-opacity:1"
       d="m 27.871094,136.88867 -1.921875,2.30274 11.824218,9.86523 11.980469,32.07813 a 1.50015,1.50015 0 0 0 2.742188,0.1582 l 11.363281,-22.23047 10.728516,7.15625 a 1.50015,1.50015 0 0 0 0.361328,0.17578 l 12.033203,3.97852 12.039062,5.875 a 1.50015,1.50015 0 0 0 0.09766,0.043 l 11.851556,4.77734 11.90625,11.73047 a 1.50015,1.50015 0 0 0 1.84961,0.20312 l 11.375,-7.11914 11.28516,6.32617 12.0664,8.55469 a 1.50015,1.50015 0 0 0 1.71875,0.01 l 12.13086,-8.37891 a 1.50015,1.50015 0 0 0 0.50977,-0.60547 l 10.71484,-23.19726 10.79297,25.24804 a 1.50015,1.50015 0 0 0 1.56641,0.89844 l 12.1289,-1.51953 a 1.50015,1.50015 0 0 0 0.7754,-0.33594 l 11.55664,-9.63281 11.25586,2.61719 11.99218,5.49609 a 1.50015,1.50015 0 0 0 0.44532,0.125 l 12.08398,1.45508 11.85156,2.17187 11.92969,6.21485 1.38672,-2.66016 -12.12891,-6.32031 a 1.50015,1.50015 0 0 0 -0.42383,-0.14453 l -12.11914,-2.22071 a 1.50015,1.50015 0 0 0 -0.0918,-0.0137 l -11.89649,-1.43164 -11.91797,-5.46289 a 1.50015,1.50015 0 0 0 -0.28515,-0.0976 l -12.13085,-2.8206 A 1.50015,1.50015 0 0 0 220,180.4668 l -11.79297,9.83007 -10.57226,1.32422 -11.67579,-27.31054 a 1.50015,1.50015 0 0 0 -2.74023,-0.0391 l -11.95898,25.88672 -10.92774,7.55078 -11.27539,-7.99218 a 1.50015,1.50015 0 0 0 -0.13281,-0.0859 l -12.13086,-6.79883 a 1.50015,1.50015 0 0 0 -1.5293,0.0371 l -11.125,6.96094 -11.27539,-11.10938 a 1.50015,1.50015 0 0 0 -0.49219,-0.32226 l -12.08007,-4.86914 -12.083989,-5.89649 a 1.50015,1.50015 0 0 0 -0.185547,-0.0762 l -11.9375,-3.94727 -11.960937,-7.97656 a 1.50015,1.50015 0 0 0 -2.167969,0.56446 L 51.373047,176.89648 40.445312,147.63477 A 1.50015,1.50015 0 0 0 40,147.00781 Z"
       id="polyline48671" />
    <path
       style="color:#000000;fill:#030710;stroke:#ffffff;stroke-width:0.75;stroke-linejoin:round;stroke-miterlimit:10;stroke-dasharray:none;stroke-opacity:1"
       d="m 26.998047,136.54297 -0.175781,2.99414 11.671875,0.68359 11.753906,9 a 1.50015,1.50015 0 0 0 1.392578,0.23047 l 12.058594,-4.08594 11.708984,-2.69336 11.78125,2.91407 a 1.50015,1.50015 0 0 0 0.236328,0.0391 l 12.089844,0.99609 11.894535,1.62891 11.9375,5.02344 a 1.50015,1.50015 0 0 0 0.63672,0.11523 l 12.11914,-0.43945 11.9082,-0.25586 11.92773,3.12695 a 1.50015,1.50015 0 0 0 0.72461,0.01 l 12.12891,-2.84961 a 1.50015,1.50015 0 0 0 0.11719,-0.0332 l 11.79101,-3.80079 11.76563,1.84571 a 1.50015,1.50015 0 0 0 0.14453,0.0156 l 12.1289,0.71875 a 1.50015,1.50015 0 0 0 0.81446,-0.18359 l 11.78515,-6.5 11.34375,0.11328 11.79102,6.75586 a 1.50015,1.50015 0 0 0 0.86328,0.19336 l 12.07813,-0.95703 12.0664,-0.11914 12.12695,-0.0684 -0.0176,-3 -12.13086,0.0684 a 1.50015,1.50015 0 0 0 -0.006,0 l -12.11914,0.12109 a 1.50015,1.50015 0 0 0 -0.10352,0.004 l -11.66797,0.92382 -11.72851,-6.71875 a 1.50015,1.50015 0 0 0 -0.73047,-0.19921 l -12.13086,-0.11914 a 1.50015,1.50015 0 0 0 -0.73828,0.18554 l -11.75,6.48047 -11.625,-0.68945 -12.04883,-1.88867 a 1.50015,1.50015 0 0 0 -0.69336,0.0527 l -12.07227,3.89258 -11.70703,2.75 -11.76953,-3.08594 a 1.50015,1.50015 0 0 0 -0.41211,-0.0488 l -12.13086,0.26172 a 1.50015,1.50015 0 0 0 -0.0215,0 l -11.79883,0.42774 -11.81445,-4.97071 a 1.50015,1.50015 0 0 0 -0.37891,-0.10351 l -12.130858,-1.66016 a 1.50015,1.50015 0 0 0 -0.08008,-0.01 l -12.009765,-0.99024 -12.013672,-2.9707 a 1.50015,1.50015 0 0 0 -0.695313,-0.006 l -12.130859,2.79101 A 1.50015,1.50015 0 0 0 62.808594,142.5 L 51.4375,146.35156 39.951172,137.55859 a 1.50015,1.50015 0 0 0 -0.824219,-0.30664 z"
       id="polyline48669" />
    <text
       x="281.60001"
       y="161.86"
       text-anchor="end"
       style="font-size:11px;font-family:Arial;fill:#030710"
       textLength="40.360001"
       lengthAdjust="spacingAndGlyphs"
       id="text48675">National</text>
    <text
       x="269.47"
       y="112.16"
       text-anchor="end"
       style="font-size:11px;font-family:Arial;fill:#00517c"
       textLength="45.880001"
       lengthAdjust="spacingAndGlyphs"
       id="text48677">Bengkulu</text>
    <text
       x="233.09"
       y="176.77"
       text-anchor="end"
       style="font-size:11px;font-family:Arial;fill:#c05100"
       textLength="18.34"
       lengthAdjust="spacingAndGlyphs"
       id="text48679">Bali</text>
    <text
       x="257.35001"
       y="200.63"
       text-anchor="end"
       style="font-size:11px;font-family:Arial;fill:#fba23c"
       textLength="36.09"
       lengthAdjust="spacingAndGlyphs"
       id="text48681">Jakarta</text>
    <polyline
       points="202.10,122.40 202.21,122.45 202.66,122.65 203.24,122.91 203.74,123.15 204.18,123.39 204.60,123.66 204.96,123.92 205.29,124.18 205.63,124.46 205.99,124.80 206.33,125.16 206.62,125.50 206.87,125.83 207.14,126.19 207.40,126.61 207.64,127.05 207.84,127.52 208.00,128.03 208.13,128.63 208.23,129.30 208.30,130.12 208.35,131.29 208.38,132.87 208.39,134.16 208.39,134.46 "
       style="stroke:#8ba2b4;stroke-width:1.07"
       id="polyline48683" />
    <text
       x="200.3"
       y="124.34"
       text-anchor="end"
       style="font-size:11px;font-family:Arial;fill:#8ba2b4"
       textLength="29.35"
       lengthAdjust="spacingAndGlyphs"
       id="text48685">Jambi</text>
  </g>
  <g
     clip-path="url(#cpMC4wMHw1NzYuMDB8MC4wMHwzMjQuMDA=)"
     id="g48737"
     transform="translate(-14.641601,-6.9176184)">
    <text
       x="299.26999"
       y="261.26999"
       style="font-size:11px;font-family:Arial;fill:#757575"
       textLength="12.24"
       lengthAdjust="spacingAndGlyphs"
       id="text48689"
       transform="translate(0.47160092)">40</text>
    <text
       x="299.26999"
       y="221.50999"
       style="font-size:11px;font-family:Arial;fill:#757575"
       textLength="12.24"
       lengthAdjust="spacingAndGlyphs"
       id="text48691"
       transform="translate(0.47160092)">60</text>
    <text
       x="299.26999"
       y="181.74001"
       style="font-size:11px;font-family:Arial;fill:#757575"
       textLength="12.24"
       lengthAdjust="spacingAndGlyphs"
       id="text48693"
       transform="translate(0.47160092)">80</text>
    <text
       x="299.26999"
       y="141.98"
       style="font-size:11px;font-family:Arial;fill:#757575"
       textLength="18.360001"
       lengthAdjust="spacingAndGlyphs"
       id="text48695"
       transform="translate(0.47160092)">100</text>
    <text
       x="299.26999"
       y="102.22"
       style="font-size:11px;font-family:Arial;fill:#757575"
       textLength="18.360001"
       lengthAdjust="spacingAndGlyphs"
       id="text48697"
       transform="translate(0.47160092)">120</text>
    <polyline
       points="26.91,268.02 26.91,265.28 "
       style="stroke:#e0e0e0;stroke-width:1.16;stroke-linecap:butt"
       id="polyline48699"
       transform="translate(0.47160092)" />
    <polyline
       points="63.29,268.02 63.29,265.28 "
       style="stroke:#e0e0e0;stroke-width:1.16;stroke-linecap:butt"
       id="polyline48701"
       transform="translate(0.47160092)" />
    <polyline
       points="99.68,268.02 99.68,265.28 "
       style="stroke:#e0e0e0;stroke-width:1.16;stroke-linecap:butt"
       id="polyline48703"
       transform="translate(0.47160092)" />
    <polyline
       points="136.06,268.02 136.06,265.28 "
       style="stroke:#e0e0e0;stroke-width:1.16;stroke-linecap:butt"
       id="polyline48705"
       transform="translate(0.47160092)" />
    <polyline
       points="172.45,268.02 172.45,265.28 "
       style="stroke:#e0e0e0;stroke-width:1.16;stroke-linecap:butt"
       id="polyline48707"
       transform="translate(0.47160092)" />
    <polyline
       points="208.83,268.02 208.83,265.28 "
       style="stroke:#e0e0e0;stroke-width:1.16;stroke-linecap:butt"
       id="polyline48709"
       transform="translate(0.47160092)" />
    <polyline
       points="245.22,268.02 245.22,265.28 "
       style="stroke:#e0e0e0;stroke-width:1.16;stroke-linecap:butt"
       id="polyline48711"
       transform="translate(0.47160092)" />
    <polyline
       points="281.60,268.02 281.60,265.28 "
       style="stroke:#e0e0e0;stroke-width:1.16;stroke-linecap:butt"
       id="polyline48713"
       transform="translate(0.47160092)" />
    <text
       x="26.91"
       y="278.09"
       text-anchor="middle"
       style="font-size:11px;font-family:Arial;fill:#757575"
       textLength="24.48"
       lengthAdjust="spacingAndGlyphs"
       id="text48715"
       transform="translate(0.47160092)">1999</text>
    <text
       x="63.290001"
       y="278.09"
       text-anchor="middle"
       style="font-size:11px;font-family:Arial;fill:#757575"
       textLength="24.48"
       lengthAdjust="spacingAndGlyphs"
       id="text48717"
       transform="translate(0.47160092)">2002</text>
    <text
       x="99.68"
       y="278.09"
       text-anchor="middle"
       style="font-size:11px;font-family:Arial;fill:#757575"
       textLength="14.34"
       lengthAdjust="spacingAndGlyphs"
       id="text48719"
       transform="translate(0.47160092)">'05</text>
    <text
       x="136.06"
       y="278.09"
       text-anchor="middle"
       style="font-size:11px;font-family:Arial;fill:#757575"
       textLength="14.34"
       lengthAdjust="spacingAndGlyphs"
       id="text48721"
       transform="translate(0.47160092)">'08</text>
    <text
       x="172.45"
       y="278.09"
       text-anchor="middle"
       style="font-size:11px;font-family:Arial;fill:#757575"
       textLength="13.53"
       lengthAdjust="spacingAndGlyphs"
       id="text48723"
       transform="translate(0.47160092)">'11</text>
    <text
       x="208.83"
       y="278.09"
       text-anchor="middle"
       style="font-size:11px;font-family:Arial;fill:#757575"
       textLength="14.34"
       lengthAdjust="spacingAndGlyphs"
       id="text48725"
       transform="translate(0.47160092)">'14</text>
    <text
       x="245.22"
       y="278.09"
       text-anchor="middle"
       style="font-size:11px;font-family:Arial;fill:#757575"
       textLength="14.34"
       lengthAdjust="spacingAndGlyphs"
       id="text48727"
       transform="translate(0.47160092)">'17</text>
    <text
       x="281.60001"
       y="278.09"
       text-anchor="middle"
       style="font-size:11px;font-family:Arial;fill:#757575"
       textLength="14.34"
       lengthAdjust="spacingAndGlyphs"
       id="text48729"
       transform="translate(0.47160092)">'20</text>
    <text
       x="14.17"
       y="62.610001"
       style="font-size:12.5px;font-family:Arial;fill:#757575"
       textLength="31.950001"
       lengthAdjust="spacingAndGlyphs"
       id="text48731"
       transform="translate(-0.28475651)">(1999</text>
    <text
       x="49.599998"
       y="62.610001"
       style="font-size:12.5px;font-family:Arial;fill:#757575"
       textLength="7.3000002"
       lengthAdjust="spacingAndGlyphs"
       id="text48733"
       transform="translate(-0.28475651)">=</text>
    <text
       x="60.369999"
       y="62.610001"
       style="font-size:12.5px;font-family:Arial;fill:#757575"
       textLength="25.01"
       lengthAdjust="spacingAndGlyphs"
       id="text48735"
       transform="translate(-0.28475651)">100)</text>
  </g>
  <defs
     id="defs48742">
    <clipPath
       id="cpMzI0LjcyfDU2OC45MXw0Ni41OHwyODcuNTA=">
      <rect
         x="324.72"
         y="46.580002"
         width="244.2"
         height="240.92"
         id="rect48739" />
    </clipPath>
  </defs>
  <g
     clip-path="url(#cpMzI0LjcyfDU2OC45MXw0Ni41OHwyODcuNTA=)"
     id="g48746"
     transform="translate(-14.641601,-6.9176184)">
    <rect
       x="324.72"
       y="46.580002"
       width="244.2"
       height="240.92"
       style="fill:#ffffff;stroke:none;stroke-width:1.07"
       id="rect48744" />
  </g>
  <g
     clip-path="url(#cpMC4wMHw1NzYuMDB8MC4wMHwzMjQuMDA=)"
     id="g48748"
     transform="translate(-14.641601,-6.9176184)" />
  <defs
     id="defs48753">
    <clipPath
       id="cpNDIxLjc0fDU2MS44M3w5MC4zM3wyNjUuMjg=">
      <rect
         x="421.73999"
         y="90.330002"
         width="140.08"
         height="174.95"
         id="rect48750" />
    </clipPath>
  </defs>
  <g
     clip-path="url(#cpNDIxLjc0fDU2MS44M3w5MC4zM3wyNjUuMjg=)"
     id="g48787"
     transform="translate(-14.641601,-6.9176184)">
    <rect
       x="421.73999"
       y="90.330002"
       width="140.08"
       height="174.95"
       style="fill:#ffffff;stroke:none;stroke-width:1.07"
       id="rect48755" />
    <polyline
       points="421.74,265.28 421.74,90.33 "
       style="stroke:#e0e0e0;stroke-width:1.16;stroke-linecap:butt"
       id="polyline48757" />
    <polyline
       points="456.77,265.28 456.77,90.33 "
       style="stroke:#e0e0e0;stroke-width:1.16;stroke-linecap:butt"
       id="polyline48759" />
    <polyline
       points="491.79,265.28 491.79,90.33 "
       style="stroke:#e0e0e0;stroke-width:1.16;stroke-linecap:butt"
       id="polyline48761" />
    <polyline
       points="526.81,265.28 526.81,90.33 "
       style="stroke:#e0e0e0;stroke-width:1.16;stroke-linecap:butt"
       id="polyline48763" />
    <polyline
       points="561.83,265.28 561.83,90.33 "
       style="stroke:#e0e0e0;stroke-width:1.16;stroke-linecap:butt"
       id="polyline48765" />
    <rect
       x="421.73999"
       y="249.42"
       width="63.09"
       height="11.15"
       style="fill:#00517c;stroke:#ffffff;stroke-width:1.07;stroke-linecap:square;stroke-linejoin:miter"
       id="rect48767" />
    <rect
       x="421.73999"
       y="232.25999"
       width="92.970001"
       height="11.15"
       style="fill:#00517c;stroke:#ffffff;stroke-width:1.07;stroke-linecap:square;stroke-linejoin:miter"
       id="rect48769" />
    <rect
       x="421.73999"
       y="215.11"
       width="96.419998"
       height="11.15"
       style="fill:#00517c;stroke:#ffffff;stroke-width:1.07;stroke-linecap:square;stroke-linejoin:miter"
       id="rect48771" />
    <rect
       x="421.73999"
       y="197.96001"
       width="96.879997"
       height="11.15"
       style="fill:#00517c;stroke:#ffffff;stroke-width:1.07;stroke-linecap:square;stroke-linejoin:miter"
       id="rect48773" />
    <rect
       x="421.73999"
       y="180.81"
       width="97.75"
       height="11.15"
       style="fill:#00517c;stroke:#ffffff;stroke-width:1.07;stroke-linecap:square;stroke-linejoin:miter"
       id="rect48775" />
    <rect
       x="421.73999"
       y="163.66"
       width="99.699997"
       height="11.15"
       style="fill:#00517c;stroke:#ffffff;stroke-width:1.07;stroke-linecap:square;stroke-linejoin:miter"
       id="rect48777" />
    <rect
       x="421.73999"
       y="146.5"
       width="99.790001"
       height="11.15"
       style="fill:#00517c;stroke:#ffffff;stroke-width:1.07;stroke-linecap:square;stroke-linejoin:miter"
       id="rect48779" />
    <rect
       x="421.73999"
       y="129.35001"
       width="100.99"
       height="11.15"
       style="fill:#00517c;stroke:#ffffff;stroke-width:1.07;stroke-linecap:square;stroke-linejoin:miter"
       id="rect48781" />
    <rect
       x="421.73999"
       y="112.2"
       width="103.34"
       height="11.15"
       style="fill:#00517c;stroke:#ffffff;stroke-width:1.07;stroke-linecap:square;stroke-linejoin:miter"
       id="rect48783" />
    <rect
       x="421.73999"
       y="95.050003"
       width="104.43"
       height="11.15"
       style="fill:#00517c;stroke:#ffffff;stroke-width:1.07;stroke-linecap:square;stroke-linejoin:miter"
       id="rect48785" />
  </g>
  <g
     clip-path="url(#cpMC4wMHw1NzYuMDB8MC4wMHwzMjQuMDA=)"
     id="g48903"
     transform="translate(-14.641601,-6.9176184)"
     inkscape:export-filename="C:\Users\dzulf\Documents\projects\jakpost-graphics\2021\2021-06-28-homeownership-slides\result\homeownership.png"
     inkscape:export-xdpi="168.24629"
     inkscape:export-ydpi="168.24629">
    <text
       x="421.73999"
       y="85.400002"
       text-anchor="middle"
       style="font-size:11px;font-family:Arial;fill:#757575"
       textLength="6.1199999"
       lengthAdjust="spacingAndGlyphs"
       id="text48789"
       transform="translate(2.0232933)">0</text>
    <text
       x="456.76999"
       y="85.400002"
       text-anchor="middle"
       style="font-size:11px;font-family:Arial;fill:#757575"
       textLength="12.24"
       lengthAdjust="spacingAndGlyphs"
       id="text48791">25</text>
    <text
       x="491.79001"
       y="85.400002"
       text-anchor="middle"
       style="font-size:11px;font-family:Arial;fill:#757575"
       textLength="12.24"
       lengthAdjust="spacingAndGlyphs"
       id="text48793">50</text>
    <text
       x="526.81"
       y="85.400002"
       text-anchor="middle"
       style="font-size:11px;font-family:Arial;fill:#757575"
       textLength="12.24"
       lengthAdjust="spacingAndGlyphs"
       id="text48795">75</text>
    <text
       x="561.83002"
       y="85.400002"
       text-anchor="middle"
       style="font-size:11px;font-family:Arial;fill:#757575"
       textLength="18.360001"
       lengthAdjust="spacingAndGlyphs"
       id="text48797"
       transform="translate(-8.0734494)">100</text>
    <polyline
       points="421.74,265.28 421.74,90.33 "
       style="stroke-width:1.16;stroke-linecap:butt"
       id="polyline48799" />
    <text
       x="331.79999"
       y="258.92999"
       style="font-size:11px;font-family:Arial;fill:#757575"
       textLength="36.09"
       lengthAdjust="spacingAndGlyphs"
       id="text48801">Jakarta</text>
    <text
       x="331.79999"
       y="241.78"
       style="font-size:11px;font-family:Arial;fill:#757575"
       textLength="60.540001"
       lengthAdjust="spacingAndGlyphs"
       id="text48803">Riau Islands</text>
    <text
       x="331.79999"
       y="224.63"
       style="font-size:11px;font-family:Arial;fill:#757575"
       textLength="80.120003"
       lengthAdjust="spacingAndGlyphs"
       id="text48805">East Kalimantan</text>
    <text
       x="331.79999"
       y="207.47"
       style="font-size:11px;font-family:Arial;fill:#757575"
       textLength="71.550003"
       lengthAdjust="spacingAndGlyphs"
       id="text48807">North Sumatra</text>
    <text
       x="331.79999"
       y="190.32001"
       style="font-size:11px;font-family:Arial;fill:#757575"
       textLength="22.620001"
       lengthAdjust="spacingAndGlyphs"
       id="text48809">Riau</text>
    <text
       x="331.79999"
       y="173.17"
       style="font-size:11px;font-family:Arial;fill:#757575"
       textLength="18.34"
       lengthAdjust="spacingAndGlyphs"
       id="text48811">Bali</text>
    <text
       x="331.79999"
       y="156.02"
       style="font-size:11px;font-family:Arial;fill:#757575"
       textLength="69.510002"
       lengthAdjust="spacingAndGlyphs"
       id="text48813">West Sumatra</text>
    <text
       x="331.79999"
       y="138.86"
       style="font-size:11px;font-family:Arial;fill:#757575"
       textLength="59.740002"
       lengthAdjust="spacingAndGlyphs"
       id="text48815">West Papua</text>
    <text
       x="331.79999"
       y="121.71"
       style="font-size:11px;font-family:Arial;fill:#757575"
       textLength="85.010002"
       lengthAdjust="spacingAndGlyphs"
       id="text48817">North Kalimantan</text>
    <text
       x="331.79999"
       y="104.56"
       style="font-size:11px;font-family:Arial;fill:#757575"
       textLength="54.66"
       lengthAdjust="spacingAndGlyphs"
       id="text48819">Yogyakarta</text>
    <polyline
       points="419.00,254.99 421.74,254.99 "
       style="stroke-width:1.16;stroke-linecap:butt"
       id="polyline48821" />
    <polyline
       points="419.00,237.84 421.74,237.84 "
       style="stroke-width:1.16;stroke-linecap:butt"
       id="polyline48823" />
    <polyline
       points="419.00,220.69 421.74,220.69 "
       style="stroke-width:1.16;stroke-linecap:butt"
       id="polyline48825" />
    <polyline
       points="419.00,203.53 421.74,203.53 "
       style="stroke-width:1.16;stroke-linecap:butt"
       id="polyline48827" />
    <polyline
       points="419.00,186.38 421.74,186.38 "
       style="stroke-width:1.16;stroke-linecap:butt"
       id="polyline48829" />
    <polyline
       points="419.00,169.23 421.74,169.23 "
       style="stroke-width:1.16;stroke-linecap:butt"
       id="polyline48831" />
    <polyline
       points="419.00,152.08 421.74,152.08 "
       style="stroke-width:1.16;stroke-linecap:butt"
       id="polyline48833" />
    <polyline
       points="419.00,134.93 421.74,134.93 "
       style="stroke-width:1.16;stroke-linecap:butt"
       id="polyline48835" />
    <polyline
       points="419.00,117.77 421.74,117.77 "
       style="stroke-width:1.16;stroke-linecap:butt"
       id="polyline48837" />
    <polyline
       points="419.00,100.62 421.74,100.62 "
       style="stroke-width:1.16;stroke-linecap:butt"
       id="polyline48839" />
    <text
       x="331.79999"
       y="62.610001"
       style="font-size:12.5px;font-family:Arial;fill:#757575"
       textLength="39.59"
       lengthAdjust="spacingAndGlyphs"
       id="text48841"
       transform="translate(-0.88269195)">Bottom</text>
    <text
       x="374.85999"
       y="62.610001"
       style="font-size:12.5px;font-family:Arial;fill:#757575"
       textLength="13.9"
       lengthAdjust="spacingAndGlyphs"
       id="text48843"
       transform="translate(-0.88269195)">10</text>
    <text
       x="392.22"
       y="62.610001"
       style="font-size:12.5px;font-family:Arial;fill:#757575"
       textLength="9.7299995"
       lengthAdjust="spacingAndGlyphs"
       id="text48845"
       transform="translate(-0.88269195)">in</text>
    <text
       x="405.42001"
       y="62.610001"
       style="font-size:12.5px;font-family:Arial;fill:#757575"
       textLength="27.790001"
       lengthAdjust="spacingAndGlyphs"
       id="text48847"
       transform="translate(-0.88269195)">2020</text>
    <text
       x="436.67999"
       y="62.610001"
       style="font-size:12.5px;font-family:Arial;fill:#757575"
       textLength="50"
       lengthAdjust="spacingAndGlyphs"
       id="text48849"
       transform="translate(-0.88269195)">(percent)</text>
    <text
       x="14.17"
       y="304.98001"
       style="font-size:10.5px;font-family:Arial;fill:#9e9e9e"
       textLength="36.18"
       lengthAdjust="spacingAndGlyphs"
       id="text48851">Source:</text>
    <text
       x="53.27"
       y="304.98001"
       style="font-size:10.5px;font-family:Arial;fill:#9e9e9e"
       textLength="42"
       lengthAdjust="spacingAndGlyphs"
       id="text48853">Statistics</text>
    <text
       x="98.18"
       y="304.98001"
       style="font-size:10.5px;font-family:Arial;fill:#9e9e9e"
       textLength="45.529999"
       lengthAdjust="spacingAndGlyphs"
       id="text48855">Indonesia</text>
    <text
       x="146.63"
       y="304.98001"
       style="font-size:10.5px;font-family:Arial;fill:#9e9e9e"
       textLength="30.91"
       lengthAdjust="spacingAndGlyphs"
       id="text48857">(BPS);</text>
    <text
       x="180.46001"
       y="304.98001"
       style="font-size:10.5px;font-family:Arial;fill:#9e9e9e"
       textLength="37.02"
       lengthAdjust="spacingAndGlyphs"
       id="text48859">author's</text>
    <text
       x="220.39999"
       y="304.98001"
       style="font-size:10.5px;font-family:Arial;fill:#9e9e9e"
       textLength="37.93"
       lengthAdjust="spacingAndGlyphs"
       id="text48861">analysis</text>
    <text
       x="14.17"
       y="314.70001"
       style="font-size:10.5px;font-family:Arial;fill:#9e9e9e"
       textLength="28.59"
       lengthAdjust="spacingAndGlyphs"
       id="text48863"
       transform="translate(-0.0512931)">Chart:</text>
    <text
       x="45.68"
       y="314.70001"
       style="font-size:10.5px;font-family:Arial;fill:#9e9e9e"
       textLength="41.43"
       lengthAdjust="spacingAndGlyphs"
       id="text48865">Dzulfiqar</text>
    <text
       x="90.029999"
       y="314.70001"
       style="font-size:10.5px;font-family:Arial;fill:#9e9e9e"
       textLength="30.35"
       lengthAdjust="spacingAndGlyphs"
       id="text48867"
       transform="translate(-0.0512931)">Fathur</text>
    <text
       x="123.29"
       y="314.70001"
       style="font-size:10.5px;font-family:Arial;fill:#9e9e9e"
       textLength="39.689999"
       lengthAdjust="spacingAndGlyphs"
       id="text48869"
       transform="translate(-0.0512931)">Rahman</text>
    <text
       x="14.17"
       y="33.98"
       style="font-size:12.5px;font-family:Arial;fill:#757575"
       textLength="33.34"
       lengthAdjust="spacingAndGlyphs"
       id="text48871"
       transform="translate(-0.08965801)">Share</text>
    <text
       x="50.990002"
       y="33.98"
       style="font-size:12.5px;font-family:Arial;fill:#757575"
       textLength="10.42"
       lengthAdjust="spacingAndGlyphs"
       id="text48873"
       transform="translate(-0.08965801)">of</text>
    <text
       x="64.879997"
       y="33.98"
       style="font-size:12.5px;font-family:Arial;fill:#757575"
       textLength="63.91"
       lengthAdjust="spacingAndGlyphs"
       id="text48875"
       transform="translate(-0.08965801)">households</text>
    <text
       x="132.25999"
       y="33.98"
       style="font-size:12.5px;font-family:Arial;fill:#757575"
       textLength="22.23"
       lengthAdjust="spacingAndGlyphs"
       id="text48877"
       transform="translate(-0.08965801)">with</text>
    <text
       x="157.96001"
       y="33.98"
       style="font-size:12.5px;font-family:Arial;fill:#757575"
       textLength="6.9499998"
       lengthAdjust="spacingAndGlyphs"
       id="text48879"
       transform="translate(-0.08965801)">a</text>
    <text
       x="168.38"
       y="33.98"
       style="font-size:12.5px;font-family:Arial;fill:#757575"
       textLength="31.26"
       lengthAdjust="spacingAndGlyphs"
       id="text48881"
       transform="translate(-0.08965801)">home</text>
    <text
       x="203.10001"
       y="33.98"
       style="font-size:12.5px;font-family:Arial;fill:#757575"
       textLength="10.42"
       lengthAdjust="spacingAndGlyphs"
       id="text48883"
       transform="translate(-0.08965801)">of</text>
    <text
       x="216.99001"
       y="33.98"
       style="font-size:12.5px;font-family:Arial;fill:#757575"
       textLength="24.309999"
       lengthAdjust="spacingAndGlyphs"
       id="text48885"
       transform="translate(-0.08965801)">their</text>
    <text
       x="244.77"
       y="33.98"
       style="font-size:12.5px;font-family:Arial;fill:#757575"
       textLength="26.4"
       lengthAdjust="spacingAndGlyphs"
       id="text48887"
       transform="translate(-0.08965801)">own,</text>
    <text
       x="274.63"
       y="33.98"
       style="font-size:12.5px;font-family:Arial;fill:#757575"
       textLength="46.540001"
       lengthAdjust="spacingAndGlyphs"
       id="text48889"
       transform="translate(-0.08965801)">selected</text>
    <text
       x="324.64001"
       y="33.98"
       style="font-size:12.5px;font-family:Arial;fill:#757575"
       textLength="53.48"
       lengthAdjust="spacingAndGlyphs"
       id="text48891"
       transform="translate(-0.08965801)">provinces</text>
    <text
       x="14.17"
       y="17.110001"
       style="font-weight:bold;font-size:14px;font-family:Arial"
       textLength="108.86"
       lengthAdjust="spacingAndGlyphs"
       id="text48893"
       transform="translate(-0.55338185)">Homeownership</text>
    <text
       x="126.93"
       y="17.110001"
       style="font-weight:bold;font-size:14px;font-family:Arial"
       textLength="24.110001"
       lengthAdjust="spacingAndGlyphs"
       id="text48895"
       transform="translate(-0.55338185)">has</text>
    <text
       x="154.92999"
       y="17.110001"
       style="font-weight:bold;font-size:14px;font-family:Arial"
       textLength="36.549999"
       lengthAdjust="spacingAndGlyphs"
       id="text48897"
       transform="translate(-0.55338185)">fallen</text>
    <text
       x="195.36"
       y="17.110001"
       style="font-weight:bold;font-size:14px;font-family:Arial"
       textLength="35.779999"
       lengthAdjust="spacingAndGlyphs"
       id="text48899"
       transform="translate(-0.55338185)">since</text>
    <text
       x="235.03"
       y="17.110001"
       style="font-weight:bold;font-size:14px;font-family:Arial"
       textLength="31.129999"
       lengthAdjust="spacingAndGlyphs"
       id="text48901"
       transform="translate(-0.55338185)">1999</text>
  </g>
</svg>
