<?xml version="1.0" encoding="UTF-8" standalone="no"?>
<svg
   class="svglite"
   width="582.88141pt"
   height="327.86908pt"
   viewBox="0 0 582.88141 327.86908"
   version="1.1"
   id="svg60496"
   sodipodi:docname="consumer-confidence-retail-sales.svg"
   inkscape:version="1.1.2 (b8e25be833, 2022-02-05)"
   inkscape:export-filename="C:\Users\dzulf\Documents\projects\jakpost-graphics\2021\2021-08-12-emergency-curbs-cci-rsi\result\consumer-confidence-retail-sales.png"
   inkscape:export-xdpi="158.11105"
   inkscape:export-ydpi="158.11105"
   xmlns:inkscape="http://www.inkscape.org/namespaces/inkscape"
   xmlns:sodipodi="http://sodipodi.sourceforge.net/DTD/sodipodi-0.dtd"
   xmlns="http://www.w3.org/2000/svg"
   xmlns:svg="http://www.w3.org/2000/svg">
  <sodipodi:namedview
     id="namedview60498"
     pagecolor="#ffffff"
     bordercolor="#666666"
     borderopacity="1.0"
     inkscape:pageshadow="2"
     inkscape:pageopacity="0.0"
     inkscape:pagecheckerboard="0"
     inkscape:document-units="pt"
     showgrid="false"
     inkscape:zoom="1.1377833"
     inkscape:cx="336.61945"
     inkscape:cy="231.15122"
     inkscape:window-width="1920"
     inkscape:window-height="1046"
     inkscape:window-x="-11"
     inkscape:window-y="-11"
     inkscape:window-maximized="1"
     inkscape:current-layer="svg60496" />
  <defs
     id="defs60241">
    <style
       type="text/css"
       id="style60239"><![CDATA[
    .svglite line, .svglite polyline, .svglite polygon, .svglite path, .svglite rect, .svglite circle {
      fill: none;
      stroke: #000000;
      stroke-linecap: round;
      stroke-linejoin: round;
      stroke-miterlimit: 10.00;
    }
  ]]></style>
  </defs>
  <rect
     width="100%"
     height="100%"
     style="fill:#ffffff;stroke:none"
     id="rect60243"
     x="-14.498089"
     y="-6.9176173" />
  <defs
     id="defs60248">
    <clipPath
       id="cpMC4wMHw2MTIuMDB8MC4wMHwzNDIuMDA=">
      <rect
         x="0"
         y="0"
         width="612"
         height="342"
         id="rect60245" />
    </clipPath>
  </defs>
  <g
     clip-path="url(#cpMC4wMHw2MTIuMDB8MC4wMHwzNDIuMDA=)"
     id="g60252"
     transform="translate(-14.498089,-6.9176174)">
    <rect
       x="6.4e-14"
       y="0"
       width="612"
       height="342"
       style="fill:#ffffff;stroke:none;stroke-width:1.07"
       id="rect60250" />
  </g>
  <defs
     id="defs60257">
    <clipPath
       id="cpNy4wOXwzMDcuMjN8MjUuMDR8Mjk1Ljc3">
      <rect
         x="7.0900002"
         y="25.040001"
         width="300.14001"
         height="270.73001"
         id="rect60254" />
    </clipPath>
  </defs>
  <g
     clip-path="url(#cpNy4wOXwzMDcuMjN8MjUuMDR8Mjk1Ljc3)"
     id="g60261"
     transform="translate(-14.498089,-6.9176174)">
    <rect
       x="7.0900002"
       y="25.040001"
       width="300.14001"
       height="270.73001"
       style="fill:#ffffff;stroke:none;stroke-width:1.07"
       id="rect60259" />
  </g>
  <g
     clip-path="url(#cpMC4wMHw2MTIuMDB8MC4wMHwzNDIuMDA=)"
     id="g60263"
     transform="translate(-14.498089,-6.9176174)" />
  <defs
     id="defs60268">
    <clipPath
       id="cpMTQuMTd8Mjc2Ljg1fDUzLjY2fDI3My41Ng==">
      <rect
         x="14.17"
         y="53.66"
         width="262.67999"
         height="219.89"
         id="rect60265" />
    </clipPath>
  </defs>
  <g
     clip-path="url(#cpMTQuMTd8Mjc2Ljg1fDUzLjY2fDI3My41Ng==)"
     id="g60318"
     transform="translate(-14.17,-6.9176174)">
    <rect
       x="14.17"
       y="53.66"
       width="262.67999"
       height="219.89"
       style="fill:#ffffff;stroke:none;stroke-width:1.07"
       id="rect60270" />
    <polyline
       points="14.17,263.56 276.85,263.56 "
       style="stroke:#e0e0e0;stroke-width:1.16;stroke-linecap:butt"
       id="polyline60272" />
    <polyline
       points="14.17,223.58 276.85,223.58 "
       style="stroke:#e0e0e0;stroke-width:1.16;stroke-linecap:butt"
       id="polyline60274" />
    <polyline
       points="14.17,183.60 276.85,183.60 "
       style="stroke:#e0e0e0;stroke-width:1.16;stroke-linecap:butt"
       id="polyline60276" />
    <polyline
       points="14.17,143.62 276.85,143.62 "
       style="stroke:#e0e0e0;stroke-width:1.16;stroke-linecap:butt"
       id="polyline60278" />
    <polyline
       points="14.17,103.64 276.85,103.64 "
       style="stroke:#e0e0e0;stroke-width:1.16;stroke-linecap:butt"
       id="polyline60280" />
    <polyline
       points="14.17,63.66 276.85,63.66 "
       style="stroke:#e0e0e0;stroke-width:1.16;stroke-linecap:butt"
       id="polyline60282" />
    <line
       x1="14.17"
       y1="143.62"
       x2="276.85001"
       y2="143.62"
       style="stroke-width:1.16;stroke-linecap:butt"
       id="line60284" />
    <path
       style="color:#000000;fill:#2477b3;stroke:#ffffff;stroke-width:0.75;stroke-linejoin:round;stroke-miterlimit:10;stroke-dasharray:none;stroke-opacity:1"
       d="m 147.39453,85.685547 -4.2793,0.11914 a 1.6251625,1.6251625 0 0 0 -1.33593,0.767579 l -3.78125,6.085937 -2.81836,-0.810547 a 1.6251625,1.6251625 0 0 0 -0.19922,-0.04297 l -4.04492,-0.630859 -4.11133,-2.892578 a 1.6251625,1.6251625 0 0 0 -2.38672,0.601562 l -4.25586,8.509766 -3.04687,4.855473 -2.88672,-4.294926 a 1.6251625,1.6251625 0 0 0 -1.91211,-0.617188 l -3.23242,1.197266 -3.70118,-5.484375 -4.28515,-6.503906 a 1.6251625,1.6251625 0 0 0 -2.660159,-0.07617 l -4.419922,5.919922 a 1.6251625,1.6251625 0 0 0 -0.0078,0.0098 l -3.947266,5.376954 -3.322265,0.93164 -2.998047,-1.353515 -4.167969,-6.75586 a 1.6251625,1.6251625 0 0 0 -1.193359,-0.761719 l -4.419922,-0.519531 a 1.6251625,1.6251625 0 0 0 -1.638672,0.875 l -4.09375,8.025391 -2.742188,1.798837 -3.375,-4.818368 a 1.6251625,1.6251625 0 0 0 -2.378906,-0.308594 l -3.486328,2.943359 -3.400391,-2.314453 a 1.6251625,1.6251625 0 0 0 -1.625,-0.119141 l -2.960937,1.439454 -3.658203,-5.91211 a 1.6251625,1.6251625 0 0 0 -2.552735,-0.271484 l -4.261718,4.43164 -4.41211,4.3125 a 1.6251625,1.6251625 0 0 0 -0.34375,0.490235 l -3.833984,8.453132 -4.132813,3.36914 2.052735,2.51953 4.429687,-3.61133 a 1.6251625,1.6251625 0 0 0 0.453125,-0.58789 l 3.865235,-8.52148 4.210937,-4.117196 a 1.6251625,1.6251625 0 0 0 0.03516,-0.03516 l 2.828125,-2.941406 3.330078,5.378906 a 1.6251625,1.6251625 0 0 0 2.091797,0.607416 l 3.433594,-1.669916 3.640625,2.480466 a 1.6251625,1.6251625 0 0 0 1.962891,-0.10156 L 60.488281,98.517578 63.75,103.17188 a 1.6251625,1.6251625 0 0 0 2.220703,0.42773 l 4.419922,-2.90039 a 1.6251625,1.6251625 0 0 0 0.556641,-0.62109 l 3.77539,-7.402349 2.517578,0.296875 4.017578,6.509766 a 1.6251625,1.6251625 0 0 0 0.714844,0.628908 l 3.988281,1.80078 a 1.6251625,1.6251625 0 0 0 1.107422,0.082 l 4.429688,-1.24023 a 1.6251625,1.6251625 0 0 0 0.871094,-0.60157 l 4.277343,-5.826168 3.03125,-4.058594 3.015626,4.576172 a 1.6251625,1.6251625 0 0 0 0.01,0.01563 l 4.41992,6.54883 a 1.6251625,1.6251625 0 0 0 1.91015,0.61524 l 3.23047,-1.19532 3.56836,5.30859 a 1.6251625,1.6251625 0 0 0 2.72461,-0.043 l 4.41992,-7.039058 a 1.6251625,1.6251625 0 0 0 0.0762,-0.138671 l 3.44532,-6.890625 2.87695,2.023437 a 1.6251625,1.6251625 0 0 0 0.68359,0.277344 L 134.37891,95 l 3.90234,1.121094 a 1.6251625,1.6251625 0 0 0 1.82812,-0.703125 l 3.96875,-6.388672 2.8086,-0.07813 3.95312,3.193359 a 1.6251625,1.6251625 0 0 0 0.043,0.0332 l 4.28906,3.230469 a 1.6251625,1.6251625 0 0 0 0.0156,0.01172 l 4.41992,3.25 a 1.6251625,1.6251625 0 0 0 0.13672,0.08984 l 4.07813,2.408205 4.08007,6.5332 a 1.6251625,1.6251625 0 0 0 2.89649,-0.2832 l 4.29687,-11.29883 2.4043,-2.425782 3.43945,7.289062 a 1.6251625,1.6251625 0 0 0 0.0469,0.0898 l 4.41406,8.03125 3.97461,7.4414 4.4043,57.51953 a 1.6251625,1.6251625 0 0 0 0.0664,0.34961 l 4.2793,14.04883 a 1.6251625,1.6251625 0 0 0 3.07812,0.0918 l 4.31446,-11.6543 3.79101,-4.26758 2.79297,-0.89062 3.7168,5.9414 4.24414,8.59571 a 1.6251625,1.6251625 0 0 0 3.05859,-0.44727 l 4.38282,-25.77539 2.04492,-4.26953 3.5039,18.41601 a 1.6251625,1.6251625 0 0 0 2.25,1.18555 l 4.41993,-1.9414 a 1.6251625,1.6251625 0 0 0 0.91796,-1.07032 l 3.99805,-15.08398 4.35156,-15.91797 4.09571,-5.64844 1.83008,-2.42383 3.94335,50.02539 3.24024,-0.25585 -4.2793,-54.28907 a 1.6251625,1.6251625 0 0 0 -2.91601,-0.85351 l -4.41993,5.85156 a 1.6251625,1.6251625 0 0 0 -0.0195,0.0254 l -4.27929,5.89844 a 1.6251625,1.6251625 0 0 0 -0.25391,0.52734 l -4.42969,16.20899 a 1.6251625,1.6251625 0 0 0 -0.002,0.0117 l -3.80078,14.33399 -1.83399,0.80469 -4.04882,-21.27539 a 1.6251625,1.6251625 0 0 0 -3.0625,-0.39844 l -4.2793,8.93945 a 1.6251625,1.6251625 0 0 0 -0.13672,0.42969 l -3.58008,21.05859 -2.06054,-4.17578 a 1.6251625,1.6251625 0 0 0 -0.0801,-0.14258 l -4.42969,-7.08007 a 1.6251625,1.6251625 0 0 0 -1.87109,-0.68555 l -4.41993,1.41015 a 1.6251625,1.6251625 0 0 0 -0.7207,0.46875 l -4.29101,4.83008 a 1.6251625,1.6251625 0 0 0 -0.3086,0.51563 l -2.74609,7.41797 -2.82422,-9.26758 -4.41602,-57.68164 a 1.6251625,1.6251625 0 0 0 -0.1875,-0.64063 l -4.13867,-7.75 a 1.6251625,1.6251625 0 0 0 -0.01,-0.0176 l -4.39649,-7.9961 -4.4082,-9.34375 a 1.6251625,1.6251625 0 0 0 -2.62305,-0.451172 l -4.28125,4.320313 a 1.6251625,1.6251625 0 0 0 -0.36328,0.566406 l -3.25586,8.560553 -2.55664,-4.093756 a 1.6251625,1.6251625 0 0 0 -0.55273,-0.539063 l -4.34961,-2.568359 -4.34766,-3.195312 -4.25977,-3.208985 -4.39843,-3.552734 a 1.6251625,1.6251625 0 0 0 -1.06641,-0.359375 z"
       id="polyline60286" />
    <polygon
       points="102.62,128.71 102.96,128.64 103.28,128.52 103.58,128.34 103.85,128.12 104.08,127.86 104.27,127.57 104.41,127.25 104.49,126.91 104.52,126.57 104.52,126.57 104.52,120.69 104.52,120.69 104.49,120.34 104.41,120.01 104.27,119.69 104.08,119.39 103.85,119.13 103.58,118.91 103.28,118.74 102.96,118.62 102.62,118.55 102.36,118.53 49.83,118.53 50.09,118.55 49.74,118.53 49.39,118.57 49.06,118.67 48.75,118.82 48.46,119.02 48.21,119.26 48,119.54 47.84,119.84 47.73,120.17 47.67,120.52 47.67,120.69 47.67,126.57 47.67,126.39 47.67,126.74 47.73,127.08 47.84,127.41 48,127.72 48.21,128 48.46,128.24 48.75,128.44 49.06,128.59 49.39,128.68 49.74,128.72 49.83,128.73 102.36,128.73 102.27,128.72 "
       style="fill:#ffffff;stroke:none"
       id="polygon60288" />
    <text
       x="47.669998"
       y="126.41"
       style="font-size:11px;font-family:Arial;fill:#757575"
       textLength="48.290001"
       lengthAdjust="spacingAndGlyphs"
       id="text60290">Optimistic</text>
    <text
       x="99.019997"
       y="126.41"
       style="font-size:11px;font-family:Arial;fill:#757575"
       textLength="5.5"
       lengthAdjust="spacingAndGlyphs"
       id="text60292">↑</text>
    <polygon
       points="109.34,168.69 109.68,168.62 110,168.5 110.3,168.32 110.57,168.1 110.8,167.84 110.99,167.55 111.12,167.23 111.21,166.89 111.23,166.55 111.23,166.55 111.23,160.67 111.23,160.67 111.21,160.32 111.12,159.99 110.99,159.67 110.8,159.37 110.57,159.11 110.3,158.89 110,158.72 109.68,158.6 109.34,158.53 109.07,158.51 49.83,158.51 50.09,158.53 49.74,158.51 49.39,158.55 49.06,158.65 48.75,158.8 48.46,159 48.21,159.24 48,159.52 47.84,159.82 47.73,160.15 47.67,160.5 47.67,160.67 47.67,166.55 47.67,166.37 47.67,166.72 47.73,167.06 47.84,167.39 48,167.7 48.21,167.98 48.46,168.22 48.75,168.42 49.06,168.57 49.39,168.66 49.74,168.7 49.83,168.71 109.07,168.71 108.99,168.7 "
       style="fill:#ffffff;stroke:none"
       id="polygon60294" />
    <text
       x="47.669998"
       y="166.39"
       style="font-size:11px;font-family:Arial;fill:#757575"
       textLength="55.009998"
       lengthAdjust="spacingAndGlyphs"
       id="text60296">Pessimistic</text>
    <text
       x="105.73"
       y="166.39"
       style="font-size:11px;font-family:Arial;fill:#757575"
       textLength="5.5"
       lengthAdjust="spacingAndGlyphs"
       id="text60298">↓</text>
    <text
       x="187.39999"
       y="77.589996"
       text-anchor="end"
       style="font-size:11px;font-family:Arial;fill:#757575"
       textLength="101.51"
       lengthAdjust="spacingAndGlyphs"
       id="text60300">COVID-19 pandemic</text>
    <line
       x1="180.10001"
       y1="203.59"
       x2="198.42"
       y2="203.59"
       style="stroke:#757575;stroke-width:1.07"
       id="line60302" />
    <text
       x="178.3"
       y="199.61"
       text-anchor="end"
       style="font-size:11px;font-family:Arial;fill:#757575"
       textLength="57.490002"
       lengthAdjust="spacingAndGlyphs"
       id="text60304">Large-scale</text>
    <text
       x="178.3"
       y="215.45"
       text-anchor="end"
       style="font-size:11px;font-family:Arial;fill:#757575"
       textLength="84.379997"
       lengthAdjust="spacingAndGlyphs"
       id="text60306">social restrictions</text>
    <text
       x="257.79999"
       y="79.669998"
       text-anchor="end"
       style="font-size:11px;font-family:Arial;fill:#757575"
       textLength="55.650002"
       lengthAdjust="spacingAndGlyphs"
       id="text60308">Emergency</text>
    <text
       x="257.79999"
       y="95.510002"
       text-anchor="end"
       style="font-size:11px;font-family:Arial;fill:#757575"
       textLength="26.91"
       lengthAdjust="spacingAndGlyphs"
       id="text60310">curbs</text>
    <line
       x1="190.97"
       y1="273.56"
       x2="190.97"
       y2="53.66"
       style="stroke:#757575;stroke-width:1.07;stroke-linecap:butt;stroke-dasharray:5.69, 5.69"
       id="line60312" />
    <rect
       x="195.39999"
       y="63.66"
       width="4.2800002"
       height="199.89999"
       style="fill:#757575;fill-opacity:0.25;stroke:none;stroke-width:1.07;stroke-linecap:square;stroke-linejoin:miter"
       id="rect60314" />
    <rect
       x="260.48001"
       y="63.66"
       width="4.4200001"
       height="199.89999"
       style="fill:#757575;fill-opacity:0.25;stroke:none;stroke-width:1.07;stroke-linecap:square;stroke-linejoin:miter"
       id="rect60316" />
  </g>
  <g
     clip-path="url(#cpMC4wMHw2MTIuMDB8MC4wMHwzNDIuMDA=)"
     id="g60358"
     transform="translate(-14.498089,-6.9176174)">
    <text
       x="281.78"
       y="267.5"
       style="font-size:11px;font-family:Arial;fill:#757575"
       textLength="12.24"
       lengthAdjust="spacingAndGlyphs"
       id="text60320"
       transform="translate(0.32808892)">40</text>
    <text
       x="281.78"
       y="227.52"
       style="font-size:11px;font-family:Arial;fill:#757575"
       textLength="12.24"
       lengthAdjust="spacingAndGlyphs"
       id="text60322"
       transform="translate(0.32808892)">60</text>
    <text
       x="281.78"
       y="187.53999"
       style="font-size:11px;font-family:Arial;fill:#757575"
       textLength="12.24"
       lengthAdjust="spacingAndGlyphs"
       id="text60324"
       transform="translate(0.32808892)">80</text>
    <text
       x="281.78"
       y="147.56"
       style="font-size:11px;font-family:Arial;fill:#757575"
       textLength="18.360001"
       lengthAdjust="spacingAndGlyphs"
       id="text60326"
       transform="translate(0.32808892)">100</text>
    <text
       x="281.78"
       y="107.58"
       style="font-size:11px;font-family:Arial;fill:#757575"
       textLength="18.360001"
       lengthAdjust="spacingAndGlyphs"
       id="text60328"
       transform="translate(0.32808892)">120</text>
    <text
       x="281.78"
       y="67.599998"
       style="font-size:11px;font-family:Arial;fill:#757575"
       textLength="18.360001"
       lengthAdjust="spacingAndGlyphs"
       id="text60330"
       transform="translate(0.32808892)">140</text>
    <polyline
       points="26.11,276.30 26.11,273.56 "
       style="stroke:#e0e0e0;stroke-width:1.16;stroke-linecap:butt"
       id="polyline60332" />
    <polyline
       points="78.21,276.30 78.21,273.56 "
       style="stroke:#e0e0e0;stroke-width:1.16;stroke-linecap:butt"
       id="polyline60334" />
    <polyline
       points="130.31,276.30 130.31,273.56 "
       style="stroke:#e0e0e0;stroke-width:1.16;stroke-linecap:butt"
       id="polyline60336" />
    <polyline
       points="182.41,276.30 182.41,273.56 "
       style="stroke:#e0e0e0;stroke-width:1.16;stroke-linecap:butt"
       id="polyline60338" />
    <polyline
       points="234.65,276.30 234.65,273.56 "
       style="stroke:#e0e0e0;stroke-width:1.16;stroke-linecap:butt"
       id="polyline60340" />
    <text
       x="26.110001"
       y="286.35999"
       text-anchor="middle"
       style="font-size:11px;font-family:Arial;fill:#757575"
       textLength="24.48"
       lengthAdjust="spacingAndGlyphs"
       id="text60342"
       transform="translate(0.32808892)">2017</text>
    <text
       x="78.209999"
       y="286.35999"
       text-anchor="middle"
       style="font-size:11px;font-family:Arial;fill:#757575"
       textLength="14.34"
       lengthAdjust="spacingAndGlyphs"
       id="text60344"
       transform="translate(0.32808892)">'18</text>
    <text
       x="130.31"
       y="286.35999"
       text-anchor="middle"
       style="font-size:11px;font-family:Arial;fill:#757575"
       textLength="14.34"
       lengthAdjust="spacingAndGlyphs"
       id="text60346"
       transform="translate(0.32808892)">'19</text>
    <text
       x="182.41"
       y="286.35999"
       text-anchor="middle"
       style="font-size:11px;font-family:Arial;fill:#757575"
       textLength="14.34"
       lengthAdjust="spacingAndGlyphs"
       id="text60348"
       transform="translate(0.32808892)">'20</text>
    <text
       x="234.64999"
       y="286.35999"
       text-anchor="middle"
       style="font-size:11px;font-family:Arial;fill:#757575"
       textLength="14.34"
       lengthAdjust="spacingAndGlyphs"
       id="text60350"
       transform="translate(0.32808892)">'21</text>
    <text
       x="14.17"
       y="41.07"
       style="font-size:12.5px;font-family:Arial;fill:#757575"
       textLength="57.639999"
       lengthAdjust="spacingAndGlyphs"
       id="text60352"
       transform="translate(-0.29425465)">Consumer</text>
    <text
       x="75.290001"
       y="41.07"
       style="font-size:12.5px;font-family:Arial;fill:#757575"
       textLength="60.439999"
       lengthAdjust="spacingAndGlyphs"
       id="text60354"
       transform="translate(-0.29425465)">confidence</text>
    <text
       x="139.19"
       y="41.07"
       style="font-size:12.5px;font-family:Arial;fill:#757575"
       textLength="29.870001"
       lengthAdjust="spacingAndGlyphs"
       id="text60356"
       transform="translate(-0.29425465)">index</text>
  </g>
  <defs
     id="defs60363">
    <clipPath
       id="cpMzA3LjIzfDYwNC45MXwyNS4wNHwyOTUuNzc=">
      <rect
         x="307.23001"
         y="25.040001"
         width="297.69"
         height="270.73001"
         id="rect60360" />
    </clipPath>
  </defs>
  <g
     clip-path="url(#cpMzA3LjIzfDYwNC45MXwyNS4wNHwyOTUuNzc=)"
     id="g60367"
     transform="translate(-14.498089,-6.9176174)">
    <rect
       x="307.23001"
       y="25.040001"
       width="297.69"
       height="270.73001"
       style="fill:#ffffff;stroke:none;stroke-width:1.07"
       id="rect60365" />
  </g>
  <g
     clip-path="url(#cpMC4wMHw2MTIuMDB8MC4wMHwzNDIuMDA=)"
     id="g60369"
     transform="translate(-14.498089,-6.9176174)" />
  <defs
     id="defs60374">
    <clipPath
       id="cpMzE0LjMxfDU3Ni45OXw1My42NnwyNzMuNTY=">
      <rect
         x="314.31"
         y="53.66"
         width="262.67999"
         height="219.89"
         id="rect60371" />
    </clipPath>
  </defs>
  <g
     clip-path="url(#cpMzE0LjMxfDU3Ni45OXw1My42NnwyNzMuNTY=)"
     id="g60400"
     transform="translate(-14.498089,-6.9176174)">
    <rect
       x="314.31"
       y="53.66"
       width="262.67999"
       height="219.89"
       style="fill:#ffffff;stroke:none;stroke-width:1.07"
       id="rect60376" />
    <polyline
       points="314.31,263.56 576.99,263.56 "
       style="stroke:#e0e0e0;stroke-width:1.16;stroke-linecap:butt"
       id="polyline60378" />
    <polyline
       points="314.31,223.58 576.99,223.58 "
       style="stroke:#e0e0e0;stroke-width:1.16;stroke-linecap:butt"
       id="polyline60380" />
    <polyline
       points="314.31,183.60 576.99,183.60 "
       style="stroke:#e0e0e0;stroke-width:1.16;stroke-linecap:butt"
       id="polyline60382" />
    <polyline
       points="314.31,143.62 576.99,143.62 "
       style="stroke:#e0e0e0;stroke-width:1.16;stroke-linecap:butt"
       id="polyline60384" />
    <polyline
       points="314.31,103.64 576.99,103.64 "
       style="stroke:#e0e0e0;stroke-width:1.16;stroke-linecap:butt"
       id="polyline60386" />
    <polyline
       points="314.31,63.66 576.99,63.66 "
       style="stroke:#e0e0e0;stroke-width:1.16;stroke-linecap:butt"
       id="polyline60388" />
    <line
       x1="314.31"
       y1="143.62"
       x2="576.98999"
       y2="143.62"
       style="stroke-width:1.16;stroke-linecap:butt"
       id="line60390" />
    <path
       style="color:#000000;fill:#2477b3;stroke-linejoin:round;stroke-miterlimit:10;stroke-width:0.75;stroke-dasharray:none;stroke:#ffffff;stroke-opacity:1"
       d="m 548.41211,100.60938 a 1.6251625,1.6251625 0 0 0 -2.39453,1.34179 l -4.41406,80.11914 -2.91016,6.9336 -2.71484,-2.91211 a 1.6251625,1.6251625 0 0 0 -2.5879,0.28125 l -2.98046,5.04297 -2.91016,-5.2168 a 1.6251625,1.6251625 0 0 0 -0.4043,-0.47852 l -3.99804,-3.20117 -4.14454,-16.04687 a 1.6251625,1.6251625 0 0 0 -2.01171,-1.15821 l -4.42969,1.24024 a 1.6251625,1.6251625 0 0 0 -0.99414,0.79687 l -4.41992,8.23047 a 1.6251625,1.6251625 0 0 0 -0.10938,0.25781 l -4.24805,12.83203 -2.83984,5.94727 -2.7793,-6.48437 -4.40039,-32.84961 a 1.6251625,1.6251625 0 0 0 -0.11718,-0.42774 l -4.14063,-9.6289 a 1.6251625,1.6251625 0 0 0 -0.96484,-0.89454 l -4.41993,-1.52148 a 1.6251625,1.6251625 0 0 0 -0.76757,-0.0703 l -3.54883,0.52929 -3.64649,-4.20117 -4.37695,-6.08008 a 1.6251625,1.6251625 0 0 0 -2.74023,0.16407 l -3.70508,6.70117 -2.8711,-0.57031 -4.10742,-3.33594 a 1.6251625,1.6251625 0 0 0 -2.54101,0.67773 l -2.18555,5.6875 -3.4082,-19.46484 a 1.6251625,1.6251625 0 0 0 -2.47266,-1.08984 l -2.74609,1.75195 -3.63086,-7.44336 a 1.6251625,1.6251625 0 0 0 -2.35352,-0.64453 l -3.99023,2.6289 a 1.6251625,1.6251625 0 0 0 -0.32813,0.28516 l -3.75195,4.27734 -3.43164,-0.97851 a 1.6251625,1.6251625 0 0 0 -1.96484,0.98828 l -4.01172,10.58789 -2.63672,0.8457 -3.57813,-4.2539 a 1.6251625,1.6251625 0 0 0 -0.25976,-0.24805 l -4.42969,-3.36914 a 1.6251625,1.6251625 0 0 0 -2.42188,0.53711 l -4.125,7.84766 -2.04101,0.7246 -3.96094,-14.12499 a 1.6251625,1.6251625 0 0 0 -3.08008,-0.1504 l -4.15234,10.6836 -4.08008,4.00586 -3.875,2.67187 a 1.6251625,1.6251625 0 0 0 -0.52539,0.59766 l -3.16406,6.20117 -2.88281,-4.34961 a 1.6251625,1.6251625 0 0 0 -0.15039,-0.19141 l -4.2793,-4.73046 a 1.6251625,1.6251625 0 0 0 -1.4668,-0.51368 l -4.42969,0.71875 a 1.6251625,1.6251625 0 0 0 -0.10156,0.0215 l -3.9375,0.90039 -4.08594,-0.83008 a 1.6251625,1.6251625 0 0 0 -1.8789,1.12305 l -2.41211,7.97851 -3.13086,-18.62695 a 1.6251625,1.6251625 0 0 0 -2.83008,-0.79492 l -3.98242,4.60156 -3.54492,0.20703 -4.3711,-0.01 a 1.6251625,1.6251625 0 0 0 -0.53711,0.0898 l -2.78711,0.96875 -3.73828,-5.86719 -2.74218,1.7461 4.43164,6.95117 a 1.6251625,1.6251625 0 0 0 1.90234,0.66015 l 3.74023,-1.29882 4.14258,0.01 a 1.6251625,1.6251625 0 0 0 0.0996,-0.004 l 4.2793,-0.25 a 1.6251625,1.6251625 0 0 0 1.13476,-0.5586 l 2.16993,-2.50781 3.70898,22.06445 a 1.6251625,1.6251625 0 0 0 3.15625,0.20117 l 3.99219,-13.20312 2.98047,0.60547 a 1.6251625,1.6251625 0 0 0 0.68554,-0.01 l 4.22852,-0.96679 3.50781,-0.57032 3.60352,3.98438 4.35351,6.5664 a 1.6251625,1.6251625 0 0 0 2.80078,-0.1582 l 4.24415,-8.31445 3.65039,-2.51563 a 1.6251625,1.6251625 0 0 0 0.21679,-0.17968 l 4.42969,-4.34961 a 1.6251625,1.6251625 0 0 0 0.37695,-0.57032 l 2.51563,-6.47265 3.11523,11.11328 a 1.6251625,1.6251625 0 0 0 2.10742,1.0918 l 4.28125,-1.51954 a 1.6251625,1.6251625 0 0 0 0.89454,-0.77539 l 3.52734,-6.71093 2.75586,2.09765 4.16406,4.95313 a 1.6251625,1.6251625 0 0 0 1.74024,0.5 l 4.41992,-1.41992 a 1.6251625,1.6251625 0 0 0 1.02344,-0.97071 l 3.75976,-9.92382 2.98438,0.85156 a 1.6251625,1.6251625 0 0 0 1.66796,-0.49219 l 4.28516,-4.88477 2.26367,-1.49218 3.61914,7.41797 a 1.6251625,1.6251625 0 0 0 2.33399,0.6582 l 2.22461,-1.41992 4,22.84961 a 1.6251625,1.6251625 0 0 0 3.11914,0.30273 l 3.48633,-9.08008 2.68164,2.17774 a 1.6251625,1.6251625 0 0 0 0.70703,0.33398 l 4.43164,0.87891 a 1.6251625,1.6251625 0 0 0 1.73828,-0.80664 l 3.03906,-5.4961 2.91992,4.0586 a 1.6251625,1.6251625 0 0 0 0.0918,0.11523 l 4.2793,4.93164 a 1.6251625,1.6251625 0 0 0 1.46679,0.54102 l 4.03711,-0.60157 3.36524,1.15625 3.76758,8.76563 4.40039,32.84766 a 1.6251625,1.6251625 0 0 0 0.11718,0.42382 l 4.2793,9.99024 a 1.6251625,1.6251625 0 0 0 2.96094,0.0606 l 4.42969,-9.2793 a 1.6251625,1.6251625 0 0 0 0.0762,-0.18945 l 4.23633,-12.79688 4.02539,-7.49609 2.16601,-0.60547 3.86524,14.96289 a 1.6251625,1.6251625 0 0 0 0.55859,0.86328 l 4.17188,3.33984 4.13476,7.41211 a 1.6251625,1.6251625 0 0 0 2.81836,0.0352 l 3.31445,-5.60742 2.94727,3.16015 a 1.6251625,1.6251625 0 0 0 2.6875,-0.48047 l 3.99023,-9.50976 a 1.6251625,1.6251625 0 0 0 0.12305,-0.53906 l 4.28906,-77.84375 1.30078,0.70117 4.3086,31.66211 a 1.6251625,1.6251625 0 0 0 0.0117,0.0742 l 4.28906,23.39062 3.19727,-0.58594 -4.28321,-23.35351 -4.41601,-32.44336 a 1.6251625,1.6251625 0 0 0 -0.83789,-1.21094 z"
       id="polyline60392" />
    <line
       x1="491.10999"
       y1="273.56"
       x2="491.10999"
       y2="53.66"
       style="stroke:#757575;stroke-width:1.07;stroke-linecap:butt;stroke-dasharray:5.69, 5.69"
       id="line60394" />
    <rect
       x="495.54001"
       y="63.66"
       width="4.2800002"
       height="199.89999"
       style="fill:#757575;fill-opacity:0.25;stroke:none;stroke-width:1.07;stroke-linecap:square;stroke-linejoin:miter"
       id="rect60396" />
    <rect
       x="560.63"
       y="63.66"
       width="4.4200001"
       height="199.89999"
       style="fill:#757575;fill-opacity:0.25;stroke:none;stroke-width:1.07;stroke-linecap:square;stroke-linejoin:miter"
       id="rect60398" />
  </g>
  <g
     clip-path="url(#cpMC4wMHw2MTIuMDB8MC4wMHwzNDIuMDA=)"
     id="g60494"
     transform="translate(-14.498089,-6.9176174)">
    <text
       x="581.91998"
       y="267.5"
       style="font-size:11px;font-family:Arial;fill:#757575"
       textLength="15.9"
       lengthAdjust="spacingAndGlyphs"
       id="text60402">-45</text>
    <text
       x="581.91998"
       y="227.52"
       style="font-size:11px;font-family:Arial;fill:#757575"
       textLength="15.9"
       lengthAdjust="spacingAndGlyphs"
       id="text60404">-30</text>
    <text
       x="581.91998"
       y="187.53999"
       style="font-size:11px;font-family:Arial;fill:#757575"
       textLength="15.9"
       lengthAdjust="spacingAndGlyphs"
       id="text60406">-15</text>
    <text
       x="581.91998"
       y="147.56"
       style="font-size:11px;font-family:Arial;fill:#757575"
       textLength="6.1199999"
       lengthAdjust="spacingAndGlyphs"
       id="text60408">0</text>
    <text
       x="581.91998"
       y="107.58"
       style="font-size:11px;font-family:Arial;fill:#757575"
       textLength="12.24"
       lengthAdjust="spacingAndGlyphs"
       id="text60410">15</text>
    <text
       x="581.91998"
       y="67.599998"
       style="font-size:11px;font-family:Arial;fill:#757575"
       textLength="12.24"
       lengthAdjust="spacingAndGlyphs"
       id="text60412">30</text>
    <polyline
       points="326.25,276.30 326.25,273.56 "
       style="stroke:#e0e0e0;stroke-width:1.16;stroke-linecap:butt"
       id="polyline60414" />
    <polyline
       points="378.35,276.30 378.35,273.56 "
       style="stroke:#e0e0e0;stroke-width:1.16;stroke-linecap:butt"
       id="polyline60416" />
    <polyline
       points="430.45,276.30 430.45,273.56 "
       style="stroke:#e0e0e0;stroke-width:1.16;stroke-linecap:butt"
       id="polyline60418" />
    <polyline
       points="482.55,276.30 482.55,273.56 "
       style="stroke:#e0e0e0;stroke-width:1.16;stroke-linecap:butt"
       id="polyline60420" />
    <polyline
       points="534.79,276.30 534.79,273.56 "
       style="stroke:#e0e0e0;stroke-width:1.16;stroke-linecap:butt"
       id="polyline60422" />
    <text
       x="326.25"
       y="286.35999"
       text-anchor="middle"
       style="font-size:11px;font-family:Arial;fill:#757575"
       textLength="24.48"
       lengthAdjust="spacingAndGlyphs"
       id="text60424">2017</text>
    <text
       x="378.35001"
       y="286.35999"
       text-anchor="middle"
       style="font-size:11px;font-family:Arial;fill:#757575"
       textLength="14.34"
       lengthAdjust="spacingAndGlyphs"
       id="text60426">'18</text>
    <text
       x="430.45001"
       y="286.35999"
       text-anchor="middle"
       style="font-size:11px;font-family:Arial;fill:#757575"
       textLength="14.34"
       lengthAdjust="spacingAndGlyphs"
       id="text60428">'19</text>
    <text
       x="482.54999"
       y="286.35999"
       text-anchor="middle"
       style="font-size:11px;font-family:Arial;fill:#757575"
       textLength="14.34"
       lengthAdjust="spacingAndGlyphs"
       id="text60430">'20</text>
    <text
       x="534.78998"
       y="286.35999"
       text-anchor="middle"
       style="font-size:11px;font-family:Arial;fill:#757575"
       textLength="14.34"
       lengthAdjust="spacingAndGlyphs"
       id="text60432">'21</text>
    <text
       x="314.31"
       y="41.07"
       style="font-size:12.5px;font-family:Arial;fill:#757575"
       textLength="31.950001"
       lengthAdjust="spacingAndGlyphs"
       id="text60434"
       transform="translate(-0.98232837)">Retail</text>
    <text
       x="349.73999"
       y="41.07"
       style="font-size:12.5px;font-family:Arial;fill:#757575"
       textLength="29.17"
       lengthAdjust="spacingAndGlyphs"
       id="text60436"
       transform="translate(-0.98232837)">sales</text>
    <text
       x="382.38"
       y="41.07"
       style="font-size:12.5px;font-family:Arial;fill:#757575"
       textLength="29.870001"
       lengthAdjust="spacingAndGlyphs"
       id="text60438"
       transform="translate(-0.98232837)">index</text>
    <text
       x="415.73001"
       y="41.07"
       style="font-size:12.5px;font-family:Arial;fill:#757575"
       textLength="70.830002"
       lengthAdjust="spacingAndGlyphs"
       id="text60440"
       transform="translate(-0.98232837)">year-on-year</text>
    <text
       x="490.03"
       y="41.07"
       style="font-size:12.5px;font-family:Arial;fill:#757575"
       textLength="45.860001"
       lengthAdjust="spacingAndGlyphs"
       id="text60442"
       transform="translate(-0.98232837)">change*</text>
    <text
       x="539.35999"
       y="41.07"
       style="font-size:12.5px;font-family:Arial;fill:#757575"
       textLength="50"
       lengthAdjust="spacingAndGlyphs"
       id="text60444"
       transform="translate(-0.98232837)">(percent)</text>
    <text
       x="14.17"
       y="313.25"
       style="font-size:10.5px;font-family:Arial;fill:#9e9e9e"
       textLength="23.93"
       lengthAdjust="spacingAndGlyphs"
       id="text60446">*Last</text>
    <text
       x="41.009998"
       y="313.25"
       style="font-size:10.5px;font-family:Arial;fill:#9e9e9e"
       textLength="26.27"
       lengthAdjust="spacingAndGlyphs"
       id="text60448">figure</text>
    <text
       x="70.199997"
       y="313.25"
       style="font-size:10.5px;font-family:Arial;fill:#9e9e9e"
       textLength="22.17"
       lengthAdjust="spacingAndGlyphs"
       id="text60450">(July</text>
    <text
       x="95.279999"
       y="313.25"
       style="font-size:10.5px;font-family:Arial;fill:#9e9e9e"
       textLength="26.860001"
       lengthAdjust="spacingAndGlyphs"
       id="text60452">2021)</text>
    <text
       x="125.05"
       y="313.25"
       style="font-size:10.5px;font-family:Arial;fill:#9e9e9e"
       textLength="7.5799999"
       lengthAdjust="spacingAndGlyphs"
       id="text60454">is</text>
    <text
       x="135.55"
       y="313.25"
       style="font-size:10.5px;font-family:Arial;fill:#9e9e9e"
       textLength="11.68"
       lengthAdjust="spacingAndGlyphs"
       id="text60456">an</text>
    <text
       x="150.14999"
       y="313.25"
       style="font-size:10.5px;font-family:Arial;fill:#9e9e9e"
       textLength="39.68"
       lengthAdjust="spacingAndGlyphs"
       id="text60458">estimate</text>
    <text
       x="14.17"
       y="322.98001"
       style="font-size:10.5px;font-family:Arial;fill:#9e9e9e"
       textLength="36.18"
       lengthAdjust="spacingAndGlyphs"
       id="text60460"
       transform="translate(-0.14351211)">Source:</text>
    <text
       x="53.27"
       y="322.98001"
       style="font-size:10.5px;font-family:Arial;fill:#9e9e9e"
       textLength="23.93"
       lengthAdjust="spacingAndGlyphs"
       id="text60462"
       transform="translate(-0.14351211)">Bank</text>
    <text
       x="80.110001"
       y="322.98001"
       style="font-size:10.5px;font-family:Arial;fill:#9e9e9e"
       textLength="45.529999"
       lengthAdjust="spacingAndGlyphs"
       id="text60464"
       transform="translate(-0.14351211)">Indonesia</text>
    <text
       x="128.56"
       y="322.98001"
       style="font-size:10.5px;font-family:Arial;fill:#9e9e9e"
       textLength="16.91"
       lengthAdjust="spacingAndGlyphs"
       id="text60466"
       transform="translate(-0.14351211)">(BI)</text>
    <text
       x="14.17"
       y="332.70001"
       style="font-size:10.5px;font-family:Arial;fill:#9e9e9e"
       textLength="28.59"
       lengthAdjust="spacingAndGlyphs"
       id="text60468"
       transform="translate(-0.1948051)">Chart:</text>
    <text
       x="45.68"
       y="332.70001"
       style="font-size:10.5px;font-family:Arial;fill:#9e9e9e"
       textLength="41.43"
       lengthAdjust="spacingAndGlyphs"
       id="text60470">Dzulfiqar</text>
    <text
       x="90.029999"
       y="332.70001"
       style="font-size:10.5px;font-family:Arial;fill:#9e9e9e"
       textLength="30.35"
       lengthAdjust="spacingAndGlyphs"
       id="text60472"
       transform="translate(-0.1948051)">Fathur</text>
    <text
       x="123.29"
       y="332.70001"
       style="font-size:10.5px;font-family:Arial;fill:#9e9e9e"
       textLength="39.689999"
       lengthAdjust="spacingAndGlyphs"
       id="text60474"
       transform="translate(-0.1948051)">Rahman</text>
    <text
       x="14.17"
       y="17.110001"
       style="font-weight:bold;font-size:14px;font-family:Arial"
       textLength="75.459999"
       lengthAdjust="spacingAndGlyphs"
       id="text60476"
       transform="translate(-0.69016318)">Emergency</text>
    <text
       x="93.519997"
       y="17.110001"
       style="font-weight:bold;font-size:14px;font-family:Arial"
       textLength="38.110001"
       lengthAdjust="spacingAndGlyphs"
       id="text60478"
       transform="translate(-0.69016318)">curbs</text>
    <text
       x="135.52"
       y="17.110001"
       style="font-weight:bold;font-size:14px;font-family:Arial"
       textLength="49.82"
       lengthAdjust="spacingAndGlyphs"
       id="text60480"
       transform="translate(-0.69016318)">reverse</text>
    <text
       x="189.23"
       y="17.110001"
       style="font-weight:bold;font-size:14px;font-family:Arial"
       textLength="58.360001"
       lengthAdjust="spacingAndGlyphs"
       id="text60482"
       transform="translate(-0.69016318)">recovery</text>
    <text
       x="251.48"
       y="17.110001"
       style="font-weight:bold;font-size:14px;font-family:Arial"
       textLength="12.43"
       lengthAdjust="spacingAndGlyphs"
       id="text60484"
       transform="translate(-0.69016318)">in</text>
    <text
       x="267.79999"
       y="17.110001"
       style="font-weight:bold;font-size:14px;font-family:Arial"
       textLength="66.889999"
       lengthAdjust="spacingAndGlyphs"
       id="text60486"
       transform="translate(-0.69016318)">consumer</text>
    <text
       x="338.57999"
       y="17.110001"
       style="font-weight:bold;font-size:14px;font-family:Arial"
       textLength="77.75"
       lengthAdjust="spacingAndGlyphs"
       id="text60488"
       transform="translate(-0.69016318)">confidence,</text>
    <text
       x="420.22"
       y="17.110001"
       style="font-weight:bold;font-size:14px;font-family:Arial"
       textLength="33.450001"
       lengthAdjust="spacingAndGlyphs"
       id="text60490"
       transform="translate(-0.69016318)">retail</text>
    <text
       x="457.56"
       y="17.110001"
       style="font-weight:bold;font-size:14px;font-family:Arial"
       textLength="35.02"
       lengthAdjust="spacingAndGlyphs"
       id="text60492"
       transform="translate(-0.69016318)">sales</text>
  </g>
</svg>
